<mxfile host="app.diagrams.net" modified="2024-04-16T17:02:29.416Z" agent="Mozilla/5.0 (Windows NT 10.0; Win64; x64) AppleWebKit/537.36 (KHTML, like Gecko) Chrome/123.0.0.0 Safari/537.36 Edg/123.0.0.0" etag="-xVLaR9VGCi1IzwQN7ct" version="24.2.3" type="github">
  <diagram id="R2lEEEUBdFMjLlhIrx00" name="Page-1">
    <mxGraphModel dx="1572" dy="944" grid="1" gridSize="10" guides="1" tooltips="1" connect="1" arrows="1" fold="1" page="1" pageScale="1" pageWidth="1200" pageHeight="1600" math="0" shadow="0" extFonts="Permanent Marker^https://fonts.googleapis.com/css?family=Permanent+Marker">
      <root>
        <mxCell id="0" />
        <mxCell id="1" parent="0" />
        <mxCell id="Vi9VGwTTPAnLPLgZi41g-36" value="" style="group" vertex="1" connectable="0" parent="1">
          <mxGeometry x="70" y="150" width="260" height="190" as="geometry" />
        </mxCell>
        <mxCell id="Vi9VGwTTPAnLPLgZi41g-1" value="Chat" style="rounded=1;arcSize=10;whiteSpace=wrap;html=1;align=center;" vertex="1" parent="Vi9VGwTTPAnLPLgZi41g-36">
          <mxGeometry x="160" y="70" width="100" height="40" as="geometry" />
        </mxCell>
        <mxCell id="Vi9VGwTTPAnLPLgZi41g-2" value="chat_id" style="ellipse;whiteSpace=wrap;html=1;align=center;" vertex="1" parent="Vi9VGwTTPAnLPLgZi41g-36">
          <mxGeometry y="70" width="100" height="40" as="geometry" />
        </mxCell>
        <mxCell id="Vi9VGwTTPAnLPLgZi41g-3" value="User2" style="ellipse;whiteSpace=wrap;html=1;align=center;" vertex="1" parent="Vi9VGwTTPAnLPLgZi41g-36">
          <mxGeometry x="60" y="150" width="100" height="40" as="geometry" />
        </mxCell>
        <mxCell id="Vi9VGwTTPAnLPLgZi41g-4" value="User1" style="ellipse;whiteSpace=wrap;html=1;align=center;" vertex="1" parent="Vi9VGwTTPAnLPLgZi41g-36">
          <mxGeometry x="100" width="100" height="40" as="geometry" />
        </mxCell>
        <mxCell id="Vi9VGwTTPAnLPLgZi41g-32" value="" style="endArrow=none;html=1;rounded=0;" edge="1" parent="Vi9VGwTTPAnLPLgZi41g-36" source="Vi9VGwTTPAnLPLgZi41g-3" target="Vi9VGwTTPAnLPLgZi41g-1">
          <mxGeometry relative="1" as="geometry">
            <mxPoint x="180" y="170" as="sourcePoint" />
            <mxPoint x="340" y="170" as="targetPoint" />
          </mxGeometry>
        </mxCell>
        <mxCell id="Vi9VGwTTPAnLPLgZi41g-33" value="" style="endArrow=none;html=1;rounded=0;" edge="1" parent="Vi9VGwTTPAnLPLgZi41g-36" source="Vi9VGwTTPAnLPLgZi41g-2" target="Vi9VGwTTPAnLPLgZi41g-1">
          <mxGeometry relative="1" as="geometry">
            <mxPoint x="190" y="180" as="sourcePoint" />
            <mxPoint x="350" y="180" as="targetPoint" />
          </mxGeometry>
        </mxCell>
        <mxCell id="Vi9VGwTTPAnLPLgZi41g-34" value="" style="endArrow=none;html=1;rounded=0;" edge="1" parent="Vi9VGwTTPAnLPLgZi41g-36" source="Vi9VGwTTPAnLPLgZi41g-1" target="Vi9VGwTTPAnLPLgZi41g-4">
          <mxGeometry relative="1" as="geometry">
            <mxPoint x="200" y="190" as="sourcePoint" />
            <mxPoint x="360" y="190" as="targetPoint" />
          </mxGeometry>
        </mxCell>
        <mxCell id="Vi9VGwTTPAnLPLgZi41g-37" value="" style="group" vertex="1" connectable="0" parent="1">
          <mxGeometry x="690" y="120" width="280" height="270" as="geometry" />
        </mxCell>
        <mxCell id="Vi9VGwTTPAnLPLgZi41g-18" value="Message" style="rounded=1;arcSize=10;whiteSpace=wrap;html=1;align=center;" vertex="1" parent="Vi9VGwTTPAnLPLgZi41g-37">
          <mxGeometry y="110" width="100" height="40" as="geometry" />
        </mxCell>
        <mxCell id="Vi9VGwTTPAnLPLgZi41g-19" value="message_id" style="ellipse;whiteSpace=wrap;html=1;align=center;" vertex="1" parent="Vi9VGwTTPAnLPLgZi41g-37">
          <mxGeometry x="180" y="70" width="100" height="40" as="geometry" />
        </mxCell>
        <mxCell id="Vi9VGwTTPAnLPLgZi41g-20" value="chatid" style="ellipse;whiteSpace=wrap;html=1;align=center;" vertex="1" parent="Vi9VGwTTPAnLPLgZi41g-37">
          <mxGeometry y="30" width="100" height="40" as="geometry" />
        </mxCell>
        <mxCell id="Vi9VGwTTPAnLPLgZi41g-21" value="sender_id" style="ellipse;whiteSpace=wrap;html=1;align=center;" vertex="1" parent="Vi9VGwTTPAnLPLgZi41g-37">
          <mxGeometry x="100" y="230" width="100" height="40" as="geometry" />
        </mxCell>
        <mxCell id="Vi9VGwTTPAnLPLgZi41g-22" value="time" style="ellipse;whiteSpace=wrap;html=1;align=center;" vertex="1" parent="Vi9VGwTTPAnLPLgZi41g-37">
          <mxGeometry x="180" y="140" width="100" height="40" as="geometry" />
        </mxCell>
        <mxCell id="Vi9VGwTTPAnLPLgZi41g-23" value="content" style="ellipse;whiteSpace=wrap;html=1;align=center;" vertex="1" parent="Vi9VGwTTPAnLPLgZi41g-37">
          <mxGeometry x="100" width="100" height="40" as="geometry" />
        </mxCell>
        <mxCell id="Vi9VGwTTPAnLPLgZi41g-24" value="receiver_id" style="ellipse;whiteSpace=wrap;html=1;align=center;" vertex="1" parent="Vi9VGwTTPAnLPLgZi41g-37">
          <mxGeometry y="190" width="100" height="40" as="geometry" />
        </mxCell>
        <mxCell id="Vi9VGwTTPAnLPLgZi41g-25" value="" style="endArrow=none;html=1;rounded=0;" edge="1" parent="Vi9VGwTTPAnLPLgZi41g-37" source="Vi9VGwTTPAnLPLgZi41g-18" target="Vi9VGwTTPAnLPLgZi41g-20">
          <mxGeometry relative="1" as="geometry">
            <mxPoint x="-110" y="40" as="sourcePoint" />
            <mxPoint x="50" y="40" as="targetPoint" />
          </mxGeometry>
        </mxCell>
        <mxCell id="Vi9VGwTTPAnLPLgZi41g-27" value="" style="endArrow=none;html=1;rounded=0;" edge="1" parent="Vi9VGwTTPAnLPLgZi41g-37" source="Vi9VGwTTPAnLPLgZi41g-21" target="Vi9VGwTTPAnLPLgZi41g-18">
          <mxGeometry relative="1" as="geometry">
            <mxPoint x="-30" y="-70" as="sourcePoint" />
            <mxPoint x="130" y="-70" as="targetPoint" />
          </mxGeometry>
        </mxCell>
        <mxCell id="Vi9VGwTTPAnLPLgZi41g-28" value="" style="endArrow=none;html=1;rounded=0;" edge="1" parent="Vi9VGwTTPAnLPLgZi41g-37" source="Vi9VGwTTPAnLPLgZi41g-24" target="Vi9VGwTTPAnLPLgZi41g-18">
          <mxGeometry relative="1" as="geometry">
            <mxPoint x="-50" y="-40" as="sourcePoint" />
            <mxPoint x="110" y="-40" as="targetPoint" />
          </mxGeometry>
        </mxCell>
        <mxCell id="Vi9VGwTTPAnLPLgZi41g-29" value="" style="endArrow=none;html=1;rounded=0;" edge="1" parent="Vi9VGwTTPAnLPLgZi41g-37" source="Vi9VGwTTPAnLPLgZi41g-18" target="Vi9VGwTTPAnLPLgZi41g-22">
          <mxGeometry relative="1" as="geometry">
            <mxPoint x="-40" y="-10" as="sourcePoint" />
            <mxPoint x="120" y="-10" as="targetPoint" />
          </mxGeometry>
        </mxCell>
        <mxCell id="Vi9VGwTTPAnLPLgZi41g-30" value="" style="endArrow=none;html=1;rounded=0;" edge="1" parent="Vi9VGwTTPAnLPLgZi41g-37" source="Vi9VGwTTPAnLPLgZi41g-18" target="Vi9VGwTTPAnLPLgZi41g-19">
          <mxGeometry relative="1" as="geometry">
            <mxPoint x="-90" y="19.090000000000003" as="sourcePoint" />
            <mxPoint x="70" y="19.090000000000003" as="targetPoint" />
          </mxGeometry>
        </mxCell>
        <mxCell id="Vi9VGwTTPAnLPLgZi41g-31" value="" style="endArrow=none;html=1;rounded=0;" edge="1" parent="Vi9VGwTTPAnLPLgZi41g-37" source="Vi9VGwTTPAnLPLgZi41g-18" target="Vi9VGwTTPAnLPLgZi41g-23">
          <mxGeometry relative="1" as="geometry">
            <mxPoint x="-30" y="70" as="sourcePoint" />
            <mxPoint x="130" y="70" as="targetPoint" />
          </mxGeometry>
        </mxCell>
        <mxCell id="Vi9VGwTTPAnLPLgZi41g-38" value="Contains" style="shape=rhombus;perimeter=rhombusPerimeter;whiteSpace=wrap;html=1;align=center;" vertex="1" parent="1">
          <mxGeometry x="440" y="215" width="120" height="60" as="geometry" />
        </mxCell>
        <mxCell id="Vi9VGwTTPAnLPLgZi41g-40" value="" style="endArrow=none;html=1;rounded=0;" edge="1" parent="1" source="Vi9VGwTTPAnLPLgZi41g-1" target="Vi9VGwTTPAnLPLgZi41g-38">
          <mxGeometry relative="1" as="geometry">
            <mxPoint x="410" y="370" as="sourcePoint" />
            <mxPoint x="570" y="370" as="targetPoint" />
          </mxGeometry>
        </mxCell>
        <mxCell id="Vi9VGwTTPAnLPLgZi41g-41" value="" style="endArrow=none;html=1;rounded=0;" edge="1" parent="1" source="Vi9VGwTTPAnLPLgZi41g-38" target="Vi9VGwTTPAnLPLgZi41g-18">
          <mxGeometry relative="1" as="geometry">
            <mxPoint x="580" y="260" as="sourcePoint" />
            <mxPoint x="580" y="380" as="targetPoint" />
          </mxGeometry>
        </mxCell>
        <mxCell id="Vi9VGwTTPAnLPLgZi41g-42" value="Users" style="rounded=1;arcSize=10;whiteSpace=wrap;html=1;align=center;" vertex="1" parent="1">
          <mxGeometry x="230" y="590" width="100" height="40" as="geometry" />
        </mxCell>
        <mxCell id="Vi9VGwTTPAnLPLgZi41g-44" value="name" style="ellipse;whiteSpace=wrap;html=1;align=center;" vertex="1" parent="1">
          <mxGeometry x="50" y="570" width="100" height="40" as="geometry" />
        </mxCell>
        <mxCell id="Vi9VGwTTPAnLPLgZi41g-45" value="User_id" style="ellipse;whiteSpace=wrap;html=1;align=center;" vertex="1" parent="1">
          <mxGeometry x="130" y="510" width="100" height="40" as="geometry" />
        </mxCell>
        <mxCell id="Vi9VGwTTPAnLPLgZi41g-46" value="email" style="ellipse;whiteSpace=wrap;html=1;align=center;" vertex="1" parent="1">
          <mxGeometry x="50" y="650" width="100" height="40" as="geometry" />
        </mxCell>
        <mxCell id="Vi9VGwTTPAnLPLgZi41g-47" value="Have" style="shape=rhombus;perimeter=rhombusPerimeter;whiteSpace=wrap;html=1;align=center;" vertex="1" parent="1">
          <mxGeometry x="220" y="410" width="120" height="60" as="geometry" />
        </mxCell>
        <mxCell id="Vi9VGwTTPAnLPLgZi41g-48" value="" style="endArrow=none;html=1;rounded=0;" edge="1" parent="1" source="Vi9VGwTTPAnLPLgZi41g-45" target="Vi9VGwTTPAnLPLgZi41g-42">
          <mxGeometry relative="1" as="geometry">
            <mxPoint x="340" y="510" as="sourcePoint" />
            <mxPoint x="500" y="510" as="targetPoint" />
          </mxGeometry>
        </mxCell>
        <mxCell id="Vi9VGwTTPAnLPLgZi41g-49" value="" style="endArrow=none;html=1;rounded=0;" edge="1" parent="1" source="Vi9VGwTTPAnLPLgZi41g-44" target="Vi9VGwTTPAnLPLgZi41g-42">
          <mxGeometry relative="1" as="geometry">
            <mxPoint x="350" y="520" as="sourcePoint" />
            <mxPoint x="510" y="520" as="targetPoint" />
          </mxGeometry>
        </mxCell>
        <mxCell id="Vi9VGwTTPAnLPLgZi41g-50" value="" style="endArrow=none;html=1;rounded=0;" edge="1" parent="1" source="Vi9VGwTTPAnLPLgZi41g-46" target="Vi9VGwTTPAnLPLgZi41g-42">
          <mxGeometry relative="1" as="geometry">
            <mxPoint x="360" y="530" as="sourcePoint" />
            <mxPoint x="520" y="530" as="targetPoint" />
          </mxGeometry>
        </mxCell>
        <mxCell id="Vi9VGwTTPAnLPLgZi41g-51" value="" style="endArrow=none;html=1;rounded=0;" edge="1" parent="1" source="Vi9VGwTTPAnLPLgZi41g-47" target="Vi9VGwTTPAnLPLgZi41g-1">
          <mxGeometry relative="1" as="geometry">
            <mxPoint x="370" y="540" as="sourcePoint" />
            <mxPoint x="530" y="540" as="targetPoint" />
          </mxGeometry>
        </mxCell>
        <mxCell id="Vi9VGwTTPAnLPLgZi41g-52" value="" style="endArrow=none;html=1;rounded=0;entryX=0.5;entryY=0;entryDx=0;entryDy=0;" edge="1" parent="1" source="Vi9VGwTTPAnLPLgZi41g-47" target="Vi9VGwTTPAnLPLgZi41g-42">
          <mxGeometry relative="1" as="geometry">
            <mxPoint x="380" y="550" as="sourcePoint" />
            <mxPoint x="540" y="550" as="targetPoint" />
          </mxGeometry>
        </mxCell>
        <mxCell id="Vi9VGwTTPAnLPLgZi41g-53" value="emailVerifid" style="ellipse;whiteSpace=wrap;html=1;align=center;" vertex="1" parent="1">
          <mxGeometry x="130" y="710" width="100" height="40" as="geometry" />
        </mxCell>
        <mxCell id="Vi9VGwTTPAnLPLgZi41g-55" value="" style="endArrow=none;html=1;rounded=0;" edge="1" parent="1" source="Vi9VGwTTPAnLPLgZi41g-53" target="Vi9VGwTTPAnLPLgZi41g-42">
          <mxGeometry relative="1" as="geometry">
            <mxPoint x="330" y="530" as="sourcePoint" />
            <mxPoint x="490" y="530" as="targetPoint" />
          </mxGeometry>
        </mxCell>
      </root>
    </mxGraphModel>
  </diagram>
</mxfile>
